<?xml version="1.0" standalone="no"?>
<!DOCTYPE svg PUBLIC "-//W3C//DTD SVG 20010904//EN"
 "http://www.w3.org/TR/2001/REC-SVG-20010904/DTD/svg10.dtd">
<svg version="1.0" xmlns="http://www.w3.org/2000/svg"
 width="128.000000pt" height="128.000000pt" viewBox="0 0 128.000000 128.000000"
 preserveAspectRatio="xMidYMid meet">

<g transform="translate(0.000000,128.000000) scale(0.100000,-0.100000)"
fill="#000000" stroke="none">
<path d="M24 1241 c-2 -2 -4 -12 -4 -21 0 -13 15 -20 60 -30 102 -22 95 21 95
-551 0 -571 8 -526 -95 -551 -43 -11 -55 -19 -55 -33 0 -19 12 -20 350 -19
385 1 429 6 549 64 238 114 372 385 326 659 -28 168 -158 341 -311 414 -131
62 -188 69 -571 71 -187 0 -342 -1 -344 -3z m698 -82 c85 -18 155 -58 214
-122 61 -66 67 -81 26 -72 -62 13 -240 22 -295 14 -121 -16 -230 -99 -285
-217 -23 -48 -27 -71 -27 -147 0 -82 3 -97 33 -157 40 -81 113 -149 192 -179
48 -18 71 -20 185 -17 94 4 142 10 173 22 38 16 43 23 56 70 27 97 27 104 9
108 -13 3 -25 -10 -43 -46 -16 -33 -41 -62 -68 -81 -41 -28 -50 -30 -135 -30
-107 0 -148 15 -213 81 -81 80 -112 241 -71 361 22 63 93 145 151 175 57 30
167 29 231 -2 46 -22 87 -66 100 -107 3 -13 13 -23 21 -23 11 0 14 17 14 75 0
41 4 75 9 75 12 0 47 -85 60 -148 16 -76 14 -230 -5 -320 -41 -203 -151 -319
-330 -353 -64 -12 -254 -5 -316 12 -65 17 -68 43 -68 531 0 482 0 480 72 496
61 14 247 14 310 1z"/>
<path d="M580 872 c0 -4 14 -13 30 -19 l30 -11 0 -222 0 -221 -32 -14 c-18 -8
-31 -15 -28 -15 26 -4 170 -4 170 1 0 3 -11 11 -24 17 -25 11 -36 58 -36 151
0 59 12 71 69 71 55 0 66 -6 83 -45 l12 -30 4 43 c2 23 2 61 0 85 l-3 42 -15
-30 c-15 -29 -18 -30 -80 -30 l-65 0 0 85 c1 120 1 120 85 120 57 0 74 -4 90
-20 11 -11 20 -27 20 -35 0 -8 5 -15 11 -15 7 0 8 12 4 33 -15 72 -1 67 -171
67 -85 0 -154 -4 -154 -8z"/>
</g>
</svg>
